<?xml version="1.0" encoding="iso-8859-1"?>
<!-- Uploaded to: SVG Repo, www.svgrepo.com, Generator: SVG Repo Mixer Tools -->
<svg height="800px" width="800px" version="1.1" id="Layer_1" xmlns="http://www.w3.org/2000/svg" xmlns:xlink="http://www.w3.org/1999/xlink" 
	 viewBox="0 0 512 512" xml:space="preserve">
<circle style="fill:#D83E20;" cx="256" cy="256" r="256"/>
<path style="fill:#C1321F;" d="M504.479,317.774L276.196,89.493l7.516,35.352L248.36,89.493l-80.551,184.594l57.958,236.127
	C235.684,511.381,245.769,512,256,512C376.084,512,476.837,429.313,504.479,317.774z"/>
<path style="fill:#F4E3C3;" d="M233.041,92.381l-69.896,104.843c-15.329,22.993-20.895,51.134-15.475,78.233l15.286,76.433
	c3.063,15.313,1.605,31.187-4.194,45.689l-31.816,79.543c29.656,17.346,63.114,28.893,98.821,33.096l24.991-149.944
	c1.483-8.89,2.227-17.889,2.227-26.903V189.323c0-5.423-6.556-8.139-10.392-4.305c-8.507,8.507-14.543,19.166-17.461,30.839
	l-13.236,52.946c-1.01,4.043-4.868,6.913-8.987,6.291c-4.725-0.714-7.704-5.303-6.573-9.826l13.319-53.276
	c3.62-14.477,11.105-27.7,21.657-38.253l21.671-21.673V98.418C252.983,87.649,239.016,83.42,233.041,92.381z"/>
<path style="fill:#EDC5A2;" d="M364.33,275.454c5.42-27.098-0.148-55.239-15.476-78.233L278.959,92.379
	c-5.973-8.961-19.942-4.732-19.942,6.039v53.645l21.671,21.673c10.552,10.554,18.039,23.776,21.657,38.253l13.319,53.276
	c1.131,4.525-1.848,9.113-6.573,9.826c-4.12,0.622-7.977-2.248-8.987-6.291l-13.236-52.946
	c-2.919-11.673-8.954-22.331-17.461-30.839c-3.834-3.834-10.392-1.119-10.392,4.305v144.046c0,9.014,0.745,18.011,2.227,26.903
	l24.991,149.944c35.709-4.203,69.165-15.748,98.821-33.096l-31.816-79.543c-5.801-14.5-7.258-30.375-4.194-45.689L364.33,275.454z"
	/>
<path style="fill:#F9B54C;" d="M235.756,457.5l-102.96-22.135c-7.108-1.527-11.631-8.528-10.104-15.638l0,0
	c1.527-7.108,8.528-11.631,15.638-10.104l102.96,22.135c7.108,1.527,11.631,8.528,10.104,15.638l0,0
	C249.865,454.504,242.864,459.028,235.756,457.5z"/>
<path style="fill:#F4A200;" d="M276.244,457.5l102.96-22.135c7.108-1.527,11.631-8.528,10.104-15.638l0,0
	c-1.527-7.108-8.528-11.631-15.638-10.104l-102.96,22.135c-7.108,1.527-11.631,8.528-10.104,15.638l0,0
	C262.135,454.504,269.136,459.028,276.244,457.5z"/>
<path style="fill:#FFD15D;" d="M235.756,483.259l-102.96-22.135c-7.108-1.527-11.631-8.528-10.104-15.638l0,0
	c1.527-7.108,8.528-11.631,15.638-10.104l102.96,22.135c7.108,1.527,11.631,8.528,10.104,15.638l0,0
	C249.865,480.263,242.864,484.786,235.756,483.259z"/>
<path style="fill:#F9B54C;" d="M276.244,483.259l102.96-22.135c7.108-1.527,11.631-8.528,10.104-15.638l0,0
	c-1.527-7.108-8.528-11.631-15.638-10.104l-102.96,22.135c-7.108,1.527-11.631,8.528-10.104,15.638l0,0
	C262.135,480.263,269.136,484.786,276.244,483.259z"/>
<path style="fill:#FFD15D;" d="M235.756,431.642l-102.96-22.135c-7.108-1.527-11.631-8.528-10.104-15.638l0,0
	c1.527-7.108,8.528-11.631,15.638-10.104l102.96,22.135c7.108,1.527,11.631,8.528,10.104,15.638l0,0
	C249.865,428.646,242.864,433.169,235.756,431.642z"/>
<path style="fill:#F9B54C;" d="M276.244,431.642l102.96-22.135c7.108-1.527,11.631-8.528,10.104-15.638l0,0
	c-1.527-7.108-8.528-11.631-15.638-10.104l-102.96,22.135c-7.108,1.527-11.631,8.528-10.104,15.638l0,0
	C262.135,428.646,269.136,433.169,276.244,431.642z"/>
</svg>